<svg width="36" height="38" viewBox="0 0 36 38" fill="none" xmlns="http://www.w3.org/2000/svg">
<g opacity="0.7">
<path d="M29.1825 32.5871L19.9 22.8627C19.1633 23.4801 18.3161 23.9689 17.3584 24.3291C16.4006 24.6893 15.3815 24.8693 14.301 24.8693C11.6243 24.8693 9.35897 23.8982 7.50494 21.9559C5.6509 20.0136 4.72388 17.6404 4.72388 14.8362C4.72388 12.0321 5.6509 9.65887 7.50494 7.71656C9.35897 5.77426 11.6243 4.8031 14.301 4.8031C16.9777 4.8031 19.2431 5.77426 21.0971 7.71656C22.9512 9.65887 23.8782 12.0321 23.8782 14.8362C23.8782 15.9682 23.7063 17.0358 23.3625 18.0391C23.0187 19.0424 22.5521 19.93 21.9628 20.7017L31.2452 30.4262L29.1825 32.5871ZM14.301 21.7822C16.1428 21.7822 17.7083 21.1069 18.9975 19.7563C20.2868 18.4057 20.9314 16.7657 20.9314 14.8362C20.9314 12.9068 20.2868 11.2667 18.9975 9.91613C17.7083 8.56552 16.1428 7.89021 14.301 7.89021C12.4593 7.89021 10.8938 8.56552 9.60454 9.91613C8.31531 11.2667 7.67069 12.9068 7.67069 14.8362C7.67069 16.7657 8.31531 18.4057 9.60454 19.7563C10.8938 21.1069 12.4593 21.7822 14.301 21.7822Z" fill="#79747E"/>
</g>
</svg>
